<svg xmlns="http://www.w3.org/2000/svg" width="410" height="240" viewBox="0 0 410 240" role="img" aria-label="GitHub stats: contributions · 12 mo 715, commits · 12 mo 601, pull requests · 12 mo 7, code reviews · 12 mo 4, stars earned 10, public repositories 133. Top languages: C++ 38%, Python 28%, TypeScript 17%, JavaScript 10%"><title>GitHub stats: contributions · 12 mo 715, commits · 12 mo 601, pull requests · 12 mo 7, code reviews · 12 mo 4, stars earned 10, public repositories 133. Top languages: C++ 38%, Python 28%, TypeScript 17%, JavaScript 10%</title><defs><linearGradient id="accent" x1="0" y1="0" x2="1" y2="0"><stop offset="0" stop-color="#22d3ee"/><stop offset="1" stop-color="#a78bfa"/></linearGradient><linearGradient id="glow" x1="0" y1="0" x2="1" y2="0"><stop offset="0" stop-color="#22d3ee" stop-opacity="0"/><stop offset=".5" stop-color="#22d3ee" stop-opacity=".9"/><stop offset="1" stop-color="#a78bfa" stop-opacity="0"/></linearGradient><clipPath id="frame"><rect x="0.5" y="0.5" width="409" height="239" rx="10"/></clipPath></defs><style>
svg{fill:#e6edf3}
text{font-family:ui-monospace, SFMono-Regular, 'SF Mono', Menlo, Consolas, 'Liberation Mono', monospace}
.muted{fill:#8b949e}
.faint{fill:#3b4452}
.cyan{fill:#22d3ee}
.purple{fill:#a78bfa}
.accent{fill:url(#accent)}
.b{font-weight:700}
.cursor{fill:#22d3ee;animation:blink 1.1s steps(1) infinite}
.caret{fill:#22d3ee;opacity:0}
.sweep{transform:translateX(-240px);animation:sweep 7s ease-in-out infinite}
@keyframes blink{50%{opacity:0}}
@keyframes caret{from{opacity:.85;transform:translateX(0)}to{opacity:.85;transform:translateX(var(--w))}}
@keyframes sweep{from{transform:translateX(-240px)}to{transform:translateX(1080px)}}
@media (prefers-reduced-motion:reduce){*{animation:none!important}}
</style><rect x="0.5" y="0.5" width="409" height="239" rx="10" fill="#0a0e14" stroke="#1c2330"/><circle cx="18" cy="16" r="4" fill="#3b4452"/><circle cx="32" cy="16" r="4" fill="#3b4452"/><circle cx="46" cy="16" r="4" fill="#3b4452"/><text x="205.0" y="20" text-anchor="middle" font-size="11" class="muted">stats.json</text><line x1="1" y1="32.5" x2="409" y2="32.5" stroke="#1c2330"/><g clip-path="url(#frame)"><rect class="sweep" x="0" y="32" width="200" height="1" fill="url(#glow)"/></g><text x="24" y="60" font-size="12" class="muted">contributions · 12 mo</text><text x="386" y="60" font-size="13" text-anchor="end" class="b cyan">715</text><text x="24" y="82" font-size="12" class="muted">commits · 12 mo</text><text x="386" y="82" font-size="13" text-anchor="end" class="b purple">601</text><text x="24" y="104" font-size="12" class="muted">pull requests · 12 mo</text><text x="386" y="104" font-size="13" text-anchor="end" class="b cyan">7</text><text x="24" y="126" font-size="12" class="muted">code reviews · 12 mo</text><text x="386" y="126" font-size="13" text-anchor="end" class="b purple">4</text><text x="24" y="148" font-size="12" class="muted">stars earned</text><text x="386" y="148" font-size="13" text-anchor="end" class="b cyan">10</text><text x="24" y="170" font-size="12" class="muted">public repositories</text><text x="386" y="170" font-size="13" text-anchor="end" class="b purple">133</text><rect x="24" y="200" width="362" height="6" rx="3" fill="#3b4452"/><rect x="24.0" y="200" width="136.2" height="6" fill="#22d3ee"/><rect x="160.2" y="200" width="100.4" height="6" fill="#a78bfa"/><rect x="260.6" y="200" width="62.8" height="6" fill="#38bdf8"/><rect x="323.4" y="200" width="34.6" height="6" fill="#e879f9"/><circle cx="28" cy="222" r="3.5" fill="#22d3ee"/><text x="36" y="226" font-size="10" class="muted">C++ 38%</text><circle cx="96.69999999999999" cy="222" r="3.5" fill="#a78bfa"/><text x="104.69999999999999" y="226" font-size="10" class="muted">Python 28%</text><circle cx="183.7" cy="222" r="3.5" fill="#38bdf8"/><text x="191.7" y="226" font-size="10" class="muted">TypeScript 17%</text><circle cx="295.09999999999997" cy="222" r="3.5" fill="#e879f9"/><text x="303.09999999999997" y="226" font-size="10" class="muted">JavaScript 10%</text></svg>
