<svg xmlns="http://www.w3.org/2000/svg" width="840" height="200" viewBox="0 0 840 200" role="img" aria-label="ProjectYCJobs: Agentic job research and matching platform. api: FastAPI; client: React; storage: Postgres; messaging: Redis Streams"><title>ProjectYCJobs: Agentic job research and matching platform. api: FastAPI; client: React; storage: Postgres; messaging: Redis Streams</title><defs><linearGradient id="accent" x1="0" y1="0" x2="1" y2="0"><stop offset="0" stop-color="#22d3ee"/><stop offset="1" stop-color="#a78bfa"/></linearGradient><linearGradient id="glow" x1="0" y1="0" x2="1" y2="0"><stop offset="0" stop-color="#22d3ee" stop-opacity="0"/><stop offset=".5" stop-color="#22d3ee" stop-opacity=".9"/><stop offset="1" stop-color="#a78bfa" stop-opacity="0"/></linearGradient><clipPath id="frame"><rect x="0.5" y="0.5" width="839" height="199" rx="10"/></clipPath></defs><style>
svg{fill:#e6edf3}
text{font-family:ui-monospace, SFMono-Regular, 'SF Mono', Menlo, Consolas, 'Liberation Mono', monospace}
.muted{fill:#8b949e}
.faint{fill:#3b4452}
.cyan{fill:#22d3ee}
.purple{fill:#a78bfa}
.accent{fill:url(#accent)}
.b{font-weight:700}
.cursor{fill:#22d3ee;animation:blink 1.1s steps(1) infinite}
.caret{fill:#22d3ee;opacity:0}
.sweep{transform:translateX(-240px);animation:sweep 7s ease-in-out infinite}
@keyframes blink{50%{opacity:0}}
@keyframes caret{from{opacity:.85;transform:translateX(0)}to{opacity:.85;transform:translateX(var(--w))}}
@keyframes sweep{from{transform:translateX(-240px)}to{transform:translateX(1080px)}}
@media (prefers-reduced-motion:reduce){*{animation:none!important}}
</style><rect x="0.5" y="0.5" width="839" height="199" rx="10" fill="#0a0e14" stroke="#1c2330"/><circle cx="18" cy="16" r="4" fill="#3b4452"/><circle cx="32" cy="16" r="4" fill="#3b4452"/><circle cx="46" cy="16" r="4" fill="#3b4452"/><text x="420.0" y="20" text-anchor="middle" font-size="11" class="muted">~/systems/projectycjobs</text><line x1="1" y1="32.5" x2="839" y2="32.5" stroke="#1c2330"/><g clip-path="url(#frame)"><rect class="sweep" x="0" y="32" width="200" height="1" fill="url(#glow)"/></g><text x="28" y="68" font-size="22" class="b accent">ProjectYCJobs</text><text x="28" y="94" font-size="13">Agentic job research and matching platform.</text><rect x="28.0" y="112" width="56.3" height="22" rx="4" fill="#0f141c" stroke="#1c2330"/><text x="36.0" y="127" font-size="11" class="">agents</text><rect x="92.3" y="112" width="96.5" height="22" rx="4" fill="#0f141c" stroke="#1c2330"/><text x="100.3" y="127" font-size="11" class="">job research</text><rect x="196.8" y="112" width="69.7" height="22" rx="4" fill="#0f141c" stroke="#1c2330"/><text x="204.8" y="127" font-size="11" class="">matching</text><rect x="500" y="50" width="150" height="58" rx="6" fill="#0f141c" stroke="#1c2330"/><text x="510" y="77" font-size="20.0" class="b cyan">FastAPI</text><text x="510" y="97" font-size="10.5" class="muted">api</text><rect x="662" y="50" width="150" height="58" rx="6" fill="#0f141c" stroke="#1c2330"/><text x="672" y="77" font-size="20.0" class="b purple">React</text><text x="672" y="97" font-size="10.5" class="muted">client</text><rect x="500" y="120" width="150" height="58" rx="6" fill="#0f141c" stroke="#1c2330"/><text x="510" y="147" font-size="20.0" class="b cyan">Postgres</text><text x="510" y="167" font-size="10.5" class="muted">storage</text><rect x="662" y="120" width="150" height="58" rx="6" fill="#0f141c" stroke="#1c2330"/><text x="672" y="147" font-size="16.4" class="b purple">Redis Streams</text><text x="672" y="167" font-size="10.5" class="muted">messaging</text></svg>
