<svg xmlns="http://www.w3.org/2000/svg" width="840" height="200" viewBox="0 0 840 200" role="img" aria-label="RayFlux: WebSocket pub/sub system written in Go, load-tested across multiple pods. requests / sec: 5,974; p95 latency: 160ms; concurrent users: 200; pods: 5"><title>RayFlux: WebSocket pub/sub system written in Go, load-tested across multiple pods. requests / sec: 5,974; p95 latency: 160ms; concurrent users: 200; pods: 5</title><defs><linearGradient id="accent" x1="0" y1="0" x2="1" y2="0"><stop offset="0" stop-color="#22d3ee"/><stop offset="1" stop-color="#a78bfa"/></linearGradient><linearGradient id="glow" x1="0" y1="0" x2="1" y2="0"><stop offset="0" stop-color="#22d3ee" stop-opacity="0"/><stop offset=".5" stop-color="#22d3ee" stop-opacity=".9"/><stop offset="1" stop-color="#a78bfa" stop-opacity="0"/></linearGradient><clipPath id="frame"><rect x="0.5" y="0.5" width="839" height="199" rx="10"/></clipPath></defs><style>
svg{fill:#e6edf3}
text{font-family:ui-monospace, SFMono-Regular, 'SF Mono', Menlo, Consolas, 'Liberation Mono', monospace}
.muted{fill:#8b949e}
.faint{fill:#3b4452}
.cyan{fill:#22d3ee}
.purple{fill:#a78bfa}
.accent{fill:url(#accent)}
.b{font-weight:700}
.cursor{fill:#22d3ee;animation:blink 1.1s steps(1) infinite}
.caret{fill:#22d3ee;opacity:0}
.sweep{transform:translateX(-240px);animation:sweep 7s ease-in-out infinite}
@keyframes blink{50%{opacity:0}}
@keyframes caret{from{opacity:.85;transform:translateX(0)}to{opacity:.85;transform:translateX(var(--w))}}
@keyframes sweep{from{transform:translateX(-240px)}to{transform:translateX(1080px)}}
@media (prefers-reduced-motion:reduce){*{animation:none!important}}
</style><rect x="0.5" y="0.5" width="839" height="199" rx="10" fill="#0a0e14" stroke="#1c2330"/><circle cx="18" cy="16" r="4" fill="#3b4452"/><circle cx="32" cy="16" r="4" fill="#3b4452"/><circle cx="46" cy="16" r="4" fill="#3b4452"/><text x="420.0" y="20" text-anchor="middle" font-size="11" class="muted">~/systems/rayflux</text><line x1="1" y1="32.5" x2="839" y2="32.5" stroke="#1c2330"/><g clip-path="url(#frame)"><rect class="sweep" x="0" y="32" width="200" height="1" fill="url(#glow)"/></g><text x="28" y="68" font-size="22" class="b accent">RayFlux</text><text x="28" y="94" font-size="13">WebSocket pub/sub system written in Go, load-tested</text><text x="28" y="114" font-size="13">across multiple pods.</text><rect x="28.0" y="132" width="29.4" height="22" rx="4" fill="#0f141c" stroke="#1c2330"/><text x="36.0" y="147" font-size="11" class="">Go</text><rect x="65.4" y="132" width="76.4" height="22" rx="4" fill="#0f141c" stroke="#1c2330"/><text x="73.4" y="147" font-size="11" class="">WebSocket</text><rect x="149.8" y="132" width="63.0" height="22" rx="4" fill="#0f141c" stroke="#1c2330"/><text x="157.8" y="147" font-size="11" class="">Pub/Sub</text><text x="28" y="180" font-size="11" class="muted">// load test: 200 concurrent users across 5 pods</text><rect x="500" y="50" width="150" height="58" rx="6" fill="#0f141c" stroke="#1c2330"/><text x="510" y="77" font-size="20.0" class="b cyan">5,974</text><text x="510" y="97" font-size="10.5" class="muted">requests / sec</text><rect x="662" y="50" width="150" height="58" rx="6" fill="#0f141c" stroke="#1c2330"/><text x="672" y="77" font-size="20.0" class="b purple">160ms</text><text x="672" y="97" font-size="10.5" class="muted">p95 latency</text><rect x="500" y="120" width="150" height="58" rx="6" fill="#0f141c" stroke="#1c2330"/><text x="510" y="147" font-size="20.0" class="b cyan">200</text><text x="510" y="167" font-size="10.5" class="muted">concurrent users</text><rect x="662" y="120" width="150" height="58" rx="6" fill="#0f141c" stroke="#1c2330"/><text x="672" y="147" font-size="20.0" class="b purple">5</text><text x="672" y="167" font-size="10.5" class="muted">pods</text></svg>
